<!DOCTYPE svg PUBLIC "-//W3C//DTD SVG 1.1//EN" "http://www.w3.org/Graphics/SVG/1.1/DTD/svg11.dtd">
<!-- Uploaded to: SVG Repo, www.svgrepo.com, Transformed by: SVG Repo Mixer Tools -->
<svg fill="#ffffff" version="1.1" id="Capa_1" xmlns="http://www.w3.org/2000/svg" xmlns:xlink="http://www.w3.org/1999/xlink" width="205px" height="205px" viewBox="-146.72 -146.72 1271.57 1271.57" xml:space="preserve">
<g id="SVGRepo_bgCarrier" stroke-width="0" transform="translate(0,0), scale(1)">
<rect x="-146.72" y="-146.72" width="1271.57" height="1271.57" rx="0" fill="#7a7a7a" strokewidth="0"/>
</g>
<g id="SVGRepo_tracerCarrier" stroke-linecap="round" stroke-linejoin="round"/>
<g id="SVGRepo_iconCarrier"> <g> <path d="M285.583,978.129c118.1,0,214.3-94.2,217.5-211.5h0.1v-478.5l332.2,83.9c37.9,9.6,74.7-19.1,74.7-58.2v-142.1 c0-27.5-18.7-51.4-45.3-58.2l-442-111.7c-37.9-9.5-74.7,19.2-74.7,58.3v492c-20.1-6-41.5-9.2-63.6-9.1 c-120.2,0.6-218.6,101.399-216.4,221.6C70.283,882.929,166.882,978.129,285.583,978.129z"/> </g> </g>
</svg>